<svg width="76" height="73" viewBox="0 0 76 73" fill="none" xmlns="http://www.w3.org/2000/svg">
<g clip-path="url(#clip0_604_1480)">
<path d="M37.9824 19.8183C41.7996 19.8183 44.8915 16.8621 44.8915 13.2121C44.8915 11.9735 44.5288 10.801 43.907 9.81005L37.9824 0L32.0578 9.81005C31.436 10.801 31.0732 11.9735 31.0732 13.2121C31.0732 16.8621 34.1652 19.8183 37.9824 19.8183Z" fill="white"/>
<path d="M58.7098 29.7275H41.437V23.1213H34.5279V29.7275H17.2552C11.5379 29.7275 6.8916 34.17 6.8916 39.6366V44.7233C6.8916 48.2906 9.93155 51.1972 13.6625 51.1972C15.4761 51.1972 17.1688 50.5201 18.4471 49.2979L25.8397 42.2458L33.2153 49.2813C35.7717 51.7256 40.228 51.7256 42.7843 49.2813L50.177 42.2458L57.5525 49.2813C58.8306 50.5034 60.5235 51.1806 62.3371 51.1806C66.068 51.1806 69.108 48.274 69.108 44.7067V39.6366C69.0735 34.17 64.4272 29.7275 58.7098 29.7275Z" fill="white"/>
<path d="M53.8562 52.7993L50.1426 49.2485L46.4117 52.7993C41.9036 57.1097 34.0272 57.1097 29.519 52.7993L25.8053 49.2485L22.0743 52.7993C19.8462 54.9627 16.858 56.1518 13.6625 56.1518C11.1579 56.1518 8.82604 55.392 6.8916 54.1204V69.3641C6.8916 71.1807 8.44615 72.6671 10.3461 72.6671H65.6188C67.5188 72.6671 69.0733 71.1807 69.0733 69.3641V54.1206C67.1387 55.3922 64.8242 56.152 62.3024 56.152C59.107 56.152 56.1189 54.9629 53.8562 52.7993Z" fill="white"/>
</g>
<defs>
<clipPath id="clip0_604_1480">
<rect width="76" height="72.667" fill="white"/>
</clipPath>
</defs>
</svg>
