<svg width="36" height="35" viewBox="0 0 36 35" fill="none" xmlns="http://www.w3.org/2000/svg">
<g clip-path="url(#clip0_262_551)">
<path d="M17.9541 35C13.3925 30.9578 1.80866 22.3919 0.444273 15.9831C-2.50525 4.02232 9.89575 -2.56275 18.2054 5.91406C25.7425 -2.08508 38.7399 3.93323 35.488 15.4078C34.1644 22.4308 23.0091 30.7701 17.9541 35Z" fill="#A51F55"/>
<path d="M35.9518 10.8642V10.8661C35.8822 11.6518 35.7292 12.4726 35.488 13.3237C34.1635 20.3447 23.01 28.685 17.9541 32.9159C13.3925 28.8727 1.80866 20.3078 0.444271 13.8971C0.23465 13.0488 0.102942 12.2281 0.04358 11.4376C-0.766149 1.0795 10.4847 -4.04506 18.2045 3.82897C21.3998 0.438816 25.5737 -0.434075 29.0779 0.56013C30.2011 0.878579 31.2557 1.38942 32.186 2.07181C34.695 3.90574 36.3042 6.97839 35.9518 10.8642Z" fill="#FF007B"/>
<path d="M22.5027 21.9171C22.3432 22.0896 22.1298 22.2384 21.8794 22.3654C20.7367 22.952 18.8325 23.0999 17.8419 23.2278C17.5154 22.1303 16.522 19.6112 16.9273 18.4634C16.9348 18.4407 16.9422 18.4179 16.9515 18.3961C17.4959 16.8096 19.0681 16.5489 20.0197 17.436C20.3341 17.727 20.579 18.1402 20.6996 18.6738C21.1114 18.5686 21.5037 18.5857 21.8497 18.6937C23.1399 19.0946 23.7827 20.7494 22.5018 21.9171H22.5027Z" fill="#FDFDFD"/>
<path d="M32.1869 2.07087L31.4198 3.647L28.2672 10.1297C27.1226 9.34117 26.0087 8.34128 24.6267 8.04463C24.4783 7.87593 25.4104 6.41827 25.5848 6.12446C26.3287 4.86678 27.0994 3.62141 27.8925 2.38553C28.282 1.77517 28.679 1.1667 29.0788 0.560135C30.202 0.878584 31.2566 1.38943 32.1869 2.07182V2.07087Z" fill="#FDFDFD"/>
<path d="M22.3366 21.2925C22.268 21.6934 22.9831 21.3389 22.7522 21.6545C21.4666 23.4268 17.1843 24.7689 15.3644 24.6788H11.735V24.2324C13.4769 23.9841 14.9359 23.17 15.6965 21.5057C16.0174 20.8044 16.1185 19.9571 16.4153 19.2652C16.56 18.9297 17.0934 17.9535 17.3039 17.7109C18.1006 16.7688 18.9512 17.1697 20.0206 17.436C20.3351 17.727 20.5799 18.1402 20.7005 18.6738C21.1123 18.5686 21.5047 18.5857 21.8506 18.6937C22.2968 19.3477 22.5157 20.2253 22.3366 21.2925Z" fill="#FDFDFD"/>
<path d="M24.2761 8.65309C24.853 8.79052 27.771 10.3799 27.6755 10.9296L22.9683 17.1185C22.4275 16.4418 21.7059 16.2703 21.0038 15.8675L24.2752 8.65309H24.2761Z" fill="#FDFDFD"/>
</g>
<defs>
<clipPath id="clip0_262_551">
<rect width="36" height="35" fill="white"/>
</clipPath>
</defs>
</svg>
