<svg width="44" height="36" viewBox="0 0 44 36" fill="none" xmlns="http://www.w3.org/2000/svg">
<path d="M31.436 3.26686C31.622 1.97942 30.8952 0.919572 29.6987 0.746715C29.0581 0.654178 28.6802 0.835936 28.0516 1.28868C27.574 0.676128 27.2633 0.390163 26.6253 0.29799C25.4287 0.125133 24.4271 0.937488 24.2404 2.22958C24.1618 2.77346 24.2812 3.31306 24.5814 3.76775L27.0887 6.81737C27.1659 6.90888 27.3102 6.92973 27.4076 6.86343L30.3557 4.88573L30.5348 4.76512L30.6025 4.70841L30.6719 4.65489C31.0889 4.30275 31.3614 3.81053 31.4376 3.27146" fill="#FF016D"/>
<path d="M10.4327 23.9779C9.96114 22.2571 8.46659 21.3227 6.86731 21.761C6.01115 21.9956 5.63564 22.4312 5.09331 23.3449C4.15709 22.8364 3.60981 22.647 2.75702 22.8807C1.15773 23.319 0.343375 24.8892 0.816629 26.6162C1.01584 27.3431 1.46154 27.9562 2.08818 28.3634L6.91182 30.8242C7.05897 30.897 7.25185 30.8441 7.33797 30.7074L9.96131 26.6053L10.1204 26.3556L10.1745 26.2472L10.2325 26.1418C10.5639 25.4706 10.6367 24.7024 10.4372 23.9828" fill="#FF016D"/>
<path d="M42.8134 21.5098C42.5261 20.4612 41.6153 19.8918 40.6408 20.1589C40.1191 20.3019 39.8902 20.5673 39.5598 21.1241C38.9893 20.8142 38.6558 20.6988 38.1361 20.8412C37.1615 21.1083 36.6653 22.0651 36.9537 23.1175C37.0751 23.5604 37.3467 23.9341 37.7285 24.1822L40.6679 25.6817C40.7576 25.7261 40.8751 25.6939 40.9276 25.6106L42.5262 23.1109L42.6231 22.9587L42.6561 22.8926L42.6914 22.8284C42.8933 22.4194 42.9377 21.9513 42.8161 21.5128" fill="#FF016D"/>
<path d="M32.3466 30.9425C33.0482 29.4419 32.5534 27.8821 31.1588 27.23C30.4122 26.8809 29.8846 26.963 28.9515 27.2829C28.5953 26.3602 28.3222 25.897 27.5785 25.5493C26.1839 24.8972 24.6634 25.5178 23.9593 27.0237C23.6629 27.6576 23.6092 28.3593 23.8074 29.0242L25.7383 33.6661C25.7986 33.8061 25.9668 33.8847 26.11 33.8399L30.4327 32.517L30.6955 32.4361L30.7989 32.3919L30.9033 32.3523C31.5414 32.077 32.055 31.5775 32.3468 30.9486" fill="#FF83B8"/>
<path d="M40.5144 8.91563C40.8752 8.14382 40.6207 7.34149 39.9034 7.00607C39.5194 6.82651 39.248 6.86876 38.768 7.0333C38.5848 6.55866 38.4443 6.32044 38.0618 6.14158C37.3445 5.80617 36.5624 6.12537 36.2002 6.89997C36.0478 7.22603 36.0202 7.58695 36.1221 7.92897L37.1153 10.3166C37.1463 10.3886 37.2328 10.429 37.3065 10.4059L39.5299 9.72552L39.6651 9.68389L39.7183 9.66119L39.772 9.64081C40.1002 9.49918 40.3644 9.24229 40.5144 8.91881" fill="#FF83B8"/>
<path d="M9.99819 1.74575C9.99819 0.736721 9.27969 0.00364575 8.28219 0.00364575C7.7482 0.00364575 7.4611 0.185092 7.0012 0.602389C6.5389 0.185092 6.2515 0 5.7196 0C4.7221 0 4 0.734758 4 1.74743C4 2.17371 4.1611 2.57474 4.4599 2.89052L6.8671 4.95373C6.9409 5.01542 7.0612 5.01542 7.1329 4.95373L9.30699 3.10842L9.43899 2.99596L9.48759 2.94492L9.53799 2.89612C9.83697 2.57953 10.0014 2.17142 9.99999 1.74912" fill="#FF83B8"/>
<path d="M26.0128 4.86494C25.7531 3.3327 24.5386 2.39338 23.1145 2.63477C22.3521 2.76399 21.989 3.109 21.4398 3.85397C20.6724 3.33217 20.2144 3.12065 19.455 3.24937C18.0309 3.49075 17.1891 4.78125 17.4498 6.31902C17.5595 6.96632 17.8927 7.53632 18.4006 7.94352L22.3683 10.494C22.4896 10.5699 22.6613 10.5408 22.7478 10.4297L25.3767 7.10145L25.5362 6.89874L25.5925 6.80947L25.6519 6.72317C25.9972 6.17007 26.1269 5.51057 26.0162 4.86961" fill="#FFB3D3"/>
<path d="M22.2259 27.6697C22.7558 26.6826 22.48 25.6106 21.5626 25.1181C21.0714 24.8544 20.7121 24.8901 20.0699 25.0713C19.8639 24.4348 19.6968 24.1118 19.2076 23.8491C18.2901 23.3566 17.2401 23.7188 16.7082 24.7095C16.4843 25.1265 16.4219 25.5984 16.5308 26.0548L17.6612 29.2619C17.6967 29.3587 17.8073 29.4181 17.9057 29.3931L20.8745 28.6614L21.0549 28.6166L21.1264 28.5907L21.1984 28.5678C21.6397 28.4057 22.0052 28.0877 22.2258 27.6739" fill="#FFB3D3"/>
</svg>
