<svg width="251" height="253" viewBox="0 0 251 253" fill="none" xmlns="http://www.w3.org/2000/svg">
<rect x="24.9899" y="20.8502" width="199.92" height="199.92" rx="99.96" fill="white"/>
<rect x="24.9899" y="20.8502" width="199.92" height="199.92" rx="99.96" stroke="#FF006D" stroke-width="14.28"/>
<g filter="url(#filter0_d_513_1707)">
<rect x="21.4199" y="17.2802" width="207.06" height="207.06" rx="103.53" fill="white" fill-opacity="0.01" shape-rendering="crispEdges"/>
<g clip-path="url(#clip0_513_1707)">
<path d="M168.061 113.153C168.061 97.6324 157.73 86.3562 143.387 86.3562C135.708 86.3562 131.58 89.1472 124.967 95.5661C118.32 89.1472 114.187 86.3002 106.539 86.3002C92.1955 86.3002 81.8123 97.6022 81.8123 113.179C81.8123 119.736 84.1287 125.905 88.4252 130.762L123.039 162.498C124.1 163.447 125.83 163.447 126.861 162.498L158.122 134.114L160.021 132.384L160.719 131.599L161.444 130.848C165.743 125.978 168.107 119.701 168.087 113.205" fill="#FF006D"/>
</g>
</g>
<defs>
<filter id="filter0_d_513_1707" x="-7.82013e-05" y="2.90871e-05" width="250.47" height="252.9" filterUnits="userSpaceOnUse" color-interpolation-filters="sRGB">
<feFlood flood-opacity="0" result="BackgroundImageFix"/>
<feColorMatrix in="SourceAlpha" type="matrix" values="0 0 0 0 0 0 0 0 0 0 0 0 0 0 0 0 0 0 127 0" result="hardAlpha"/>
<feOffset dy="7.14"/>
<feGaussianBlur stdDeviation="10.71"/>
<feComposite in2="hardAlpha" operator="out"/>
<feColorMatrix type="matrix" values="0 0 0 0 0.396078 0 0 0 0 0.431373 0 0 0 0 0.482353 0 0 0 0.12 0"/>
<feBlend mode="normal" in2="BackgroundImageFix" result="effect1_dropShadow_513_1707"/>
<feBlend mode="normal" in="SourceGraphic" in2="effect1_dropShadow_513_1707" result="shape"/>
</filter>
<clipPath id="clip0_513_1707">
<rect width="103.53" height="103.53" fill="white" transform="translate(73.1848 69.0452)"/>
</clipPath>
</defs>
</svg>
