<svg width="56" height="58" viewBox="0 0 56 58" fill="none" xmlns="http://www.w3.org/2000/svg">
<path d="M5.72187 25.3443L27.2582 7.44521C27.4656 7.2698 27.7284 7.17355 28 7.17355C28.2716 7.17355 28.5344 7.2698 28.7418 7.44521L50.2781 25.3443C50.6344 25.6379 51.0457 25.8575 51.4879 25.9902C51.9301 26.1229 52.3944 26.166 52.8535 26.117C53.3126 26.0679 53.7572 25.9278 54.1615 25.7047C54.5657 25.4816 54.9213 25.1801 55.2076 24.8178C55.7981 24.0766 56.076 23.1342 55.9821 22.1912C55.8883 21.2482 55.4301 20.3791 54.705 19.7688L33.1687 1.84577C31.7106 0.652168 29.8843 0 28 0C26.1157 0 24.2894 0.652168 22.8313 1.84577L1.29496 19.7688C0.569946 20.3791 0.111746 21.2482 0.0178918 22.1912C-0.0759627 23.1342 0.20194 24.0766 0.792446 24.8178C1.07867 25.1801 1.43431 25.4816 1.83854 25.7047C2.24276 25.9278 2.68745 26.0679 3.14653 26.117C3.60561 26.166 4.06987 26.1229 4.51209 25.9902C4.95431 25.8575 5.3656 25.6379 5.72187 25.3443Z" fill="white"/>
<path d="M52.719 52.6473V35.8968C52.7008 35.1774 52.5365 34.4692 52.2362 33.8151C51.936 33.1611 51.5059 32.5749 50.9722 32.0921L31.1109 15.3416C30.2738 14.6363 29.2144 14.2495 28.1198 14.2495C27.0251 14.2495 25.9657 14.6363 25.1286 15.3416L5.26734 32.0921C4.73364 32.5749 4.30359 33.1611 4.00331 33.8151C3.70303 34.4692 3.53877 35.1774 3.52051 35.8968V52.6473C3.52051 53.9166 4.02473 55.1339 4.92225 56.0314C5.81977 56.9289 7.03707 57.4332 8.30636 57.4332H21.0846C21.7192 57.4332 22.3279 57.1811 22.7766 56.7323C23.2254 56.2835 23.4775 55.6749 23.4775 55.0402V41.8792C23.4775 41.2445 23.7296 40.6359 24.1784 40.1871C24.6271 39.7383 25.2358 39.4862 25.8704 39.4862H30.6563C31.2909 39.4862 31.8996 39.7383 32.3483 40.1871C32.7971 40.6359 33.0492 41.2445 33.0492 41.8792V55.0402C33.0492 55.6749 33.3013 56.2835 33.7501 56.7323C34.1988 57.1811 34.8075 57.4332 35.4421 57.4332H48.3161C49.5179 57.3367 50.639 56.7902 51.4553 55.9029C52.2716 55.0157 52.7229 53.853 52.719 52.6473Z" fill="white"/>
</svg>
