<svg width="145" height="35" viewBox="0 0 145 35" fill="none" xmlns="http://www.w3.org/2000/svg">
<path d="M0 8.83332V3.21261H22.0043V8.83332H14.2667V34.4408H7.72821V8.83332H0Z" fill="black"/>
<path d="M25.0394 34.4408V13.622H31.1564V34.4408H25.0394Z" fill="black"/>
<path d="M34.9315 34.4408V13.622H40.4115V15.9147C41.1609 14.944 42.0883 14.2044 43.1937 13.696C44.299 13.1875 45.4794 12.9287 46.744 12.9287C48.2428 12.9287 49.6479 13.28 50.95 13.9825C52.2521 14.6851 53.3012 15.7205 54.1162 17.0702C54.9218 18.4199 55.334 20.0562 55.334 21.9791V34.4316H49.217V22.7741C49.217 21.6186 48.8704 20.5924 48.1585 19.6865C47.4559 18.7805 46.4442 18.3367 45.1328 18.3367C44.0742 18.3367 43.1375 18.688 42.3038 19.3906C41.4701 20.0932 41.0579 21.2026 41.0579 22.7002V34.4223H34.9409L34.9315 34.4408Z" fill="black"/>
<path d="M68.3268 34.9955C66.3596 34.9955 64.5798 34.4963 62.9779 33.5071C61.3761 32.5179 60.1114 31.1867 59.1653 29.5319C58.2192 27.8772 57.7415 26.0467 57.7415 24.0314C57.7415 22.0161 58.2192 20.1764 59.1653 18.5124C60.1114 16.8484 61.3854 15.5264 62.9779 14.5372C64.5704 13.5573 66.3502 13.0673 68.3268 13.0673C69.4509 13.0673 70.4907 13.2245 71.4555 13.5573C72.4204 13.8809 73.2822 14.3431 74.0597 14.944V1.13258H80.1767V34.4408H74.9028V32.3978C74.1065 33.2113 73.1417 33.8399 72.0176 34.3021C70.8935 34.7644 69.6663 34.9955 68.3268 34.9955ZM69.0293 29.6891C70.0598 29.6891 70.9965 29.4302 71.8396 28.9218C72.6827 28.4133 73.3571 27.7292 73.863 26.8787C74.3688 26.0282 74.6217 25.076 74.6217 24.0314C74.6217 22.9868 74.3688 22.0438 73.863 21.1841C73.3571 20.3243 72.6827 19.6495 71.8396 19.141C70.9965 18.6326 70.0598 18.3737 69.0293 18.3737C67.9989 18.3737 67.0622 18.6326 66.2191 19.141C65.376 19.6495 64.7015 20.3336 64.1957 21.1841C63.6898 22.0438 63.4369 22.9868 63.4369 24.0314C63.4369 25.076 63.6898 26.019 64.1957 26.8787C64.7015 27.7385 65.376 28.4133 66.2191 28.9218C67.0622 29.4302 67.9989 29.6891 69.0293 29.6891Z" fill="black"/>
<path d="M83.343 14.6851C84.3547 13.2522 85.179 11.6159 85.8347 9.73929C86.4904 7.86263 86.6122 5.0153 86.6122 2.56549H92.9072C92.9072 4.73796 91.8299 7.22476 90.9869 9.21234C90.2094 11.052 86.8651 14.9347 83.3242 14.7036" fill="black"/>
<path d="M80.1766 34.4408L102.218 2.10326H102.293L108.167 34.4408H102.153L101.207 28.8848H90.4528L86.6871 34.4408H80.186H80.1766ZM93.8158 23.8927H100.317L99.7548 20.7034C99.5955 19.8436 99.455 19.0208 99.3332 18.2258C99.2115 17.4308 99.1459 16.4971 99.1178 15.4339C98.6026 16.4786 98.0967 17.403 97.5909 18.2073C97.085 19.0116 96.5417 19.8529 95.9609 20.7034L93.8158 23.8927Z" fill="black"/>
<path d="M110.902 34.4408L116.176 13.622H121.656L120.851 16.8484C121.881 15.739 123.033 14.8885 124.298 14.2969C125.562 13.7052 126.911 13.4094 128.345 13.4094V18.7528C127.923 18.6141 127.427 18.5401 126.864 18.5401C125.15 18.5401 123.614 19.1225 122.256 20.2966C120.897 21.4614 119.914 23.2549 119.305 25.6585L117.019 34.4408H110.902Z" fill="black"/>
<path d="M129.534 34.4408L133.609 18.4107H129.675L130.874 13.622H134.921L136.682 6.67933H142.583L140.86 13.622H145.009L143.81 18.4107H139.735L135.661 34.4408H129.544H129.534Z" fill="black"/>
<path d="M86.6122 2.57473C86.6216 1.65027 87.2492 0.772035 87.933 0.42074C89.0571 -0.152424 90.4154 -0.133935 91.5395 0.43923C92.2327 0.799768 92.8697 1.678 92.9072 2.57473" fill="black"/>
<path d="M28.0838 11.0797C26.9597 10.1183 24.1214 8.0845 23.7841 6.56839C23.0628 3.7303 26.1073 2.16797 28.1494 4.18329C30.0042 2.28815 33.1985 3.71181 32.3929 6.43896C32.065 8.10299 29.3297 10.0813 28.0838 11.089" fill="black"/>
</svg>
