<svg width="251" height="253" viewBox="0 0 251 253" fill="none" xmlns="http://www.w3.org/2000/svg">
<rect x="26.7751" y="22.6352" width="196.35" height="196.35" rx="98.175" fill="white"/>
<rect x="26.7751" y="22.6352" width="196.35" height="196.35" rx="98.175" stroke="white" stroke-width="17.85"/>
<g filter="url(#filter0_d_528_1373)">
<rect x="21.42" y="17.2802" width="207.06" height="207.06" rx="103.53" fill="white" fill-opacity="0.01" shape-rendering="crispEdges"/>
<g clip-path="url(#clip0_528_1373)">
<path d="M139.789 120.81L160.357 141.119C164.913 145.334 164.913 151.649 160.357 156.213C156.85 160.773 149.84 160.773 145.635 156.213L124.95 135.995L104.619 155.859C100.413 160.423 94.1025 160.423 89.5428 155.859C84.9875 152.352 84.9875 145.334 89.5428 141.119L109.723 120.81L89.8966 100.41C84.9875 96.2002 84.9875 89.8849 89.8966 85.6704C90.6789 84.5342 91.7258 83.6052 92.9469 82.9634C94.1681 82.3216 95.5269 81.9863 96.9064 81.9863C98.2859 81.9863 99.6448 82.3216 100.866 82.9634C102.087 83.6052 103.134 84.5342 103.916 85.6704L124.95 105.371L145.281 85.6704C149.487 80.757 155.798 80.757 160.004 85.6704C164.563 89.1818 164.563 96.1959 160.004 100.41L139.789 120.81Z" fill="black"/>
</g>
</g>
<defs>
<filter id="filter0_d_528_1373" x="4.3869e-05" y="2.90871e-05" width="250.47" height="252.9" filterUnits="userSpaceOnUse" color-interpolation-filters="sRGB">
<feFlood flood-opacity="0" result="BackgroundImageFix"/>
<feColorMatrix in="SourceAlpha" type="matrix" values="0 0 0 0 0 0 0 0 0 0 0 0 0 0 0 0 0 0 127 0" result="hardAlpha"/>
<feOffset dy="7.14"/>
<feGaussianBlur stdDeviation="10.71"/>
<feComposite in2="hardAlpha" operator="out"/>
<feColorMatrix type="matrix" values="0 0 0 0 0.396078 0 0 0 0 0.431373 0 0 0 0 0.482353 0 0 0 0.12 0"/>
<feBlend mode="normal" in2="BackgroundImageFix" result="effect1_dropShadow_528_1373"/>
<feBlend mode="normal" in="SourceGraphic" in2="effect1_dropShadow_528_1373" result="shape"/>
</filter>
<clipPath id="clip0_528_1373">
<rect width="103.53" height="103.53" fill="white" transform="translate(73.1851 69.0452)"/>
</clipPath>
</defs>
</svg>
