<svg width="78" height="78" viewBox="0 0 78 78" fill="none" xmlns="http://www.w3.org/2000/svg">
<path d="M53.663 38.8248L74.231 59.134C78.7863 63.3485 78.7863 69.6638 74.231 74.2278C70.7239 78.7874 63.7141 78.7874 59.5082 74.2278L38.8237 54.0092L18.493 73.874C14.2871 78.438 7.97612 78.438 3.41649 73.874C-1.13883 70.367 -1.13883 63.3485 3.41649 59.134L23.5962 38.8248L3.77022 18.4251C-1.13883 14.2149 -1.13883 7.89955 3.77022 3.68502C4.5526 2.54883 5.59944 1.61984 6.82057 0.978069C8.04171 0.336295 9.40055 0.000968184 10.7801 0.000968184C12.1596 0.000968184 13.5184 0.336295 14.7395 0.978069C15.9607 1.61984 17.0075 2.54883 17.7899 3.68502L38.8237 23.3859L59.1544 3.68502C63.3604 -1.22834 69.6714 -1.22834 73.8773 3.68502C78.4369 7.19641 78.4369 14.2106 73.8773 18.4251L53.663 38.8248Z" fill="white"/>
</svg>
